<?xml version="1.0" encoding="UTF-8" standalone="no"?> <!-- Created with Vectornator for iOS (http://vectornator.io/) --><!DOCTYPE svg PUBLIC "-//W3C//DTD SVG 1.1//EN" "http://www.w3.org/Graphics/SVG/1.1/DTD/svg11.dtd">
<svg height="100%" style="fill-rule:evenodd;clip-rule:evenodd;stroke-linecap:round;stroke-linejoin:round;" xmlns:xlink="http://www.w3.org/1999/xlink" xmlns="http://www.w3.org/2000/svg" xml:space="preserve" width="100%" xmlns:vectornator="http://vectornator.io" version="1.1" viewBox="0 0 1024 1024">
<metadata>
<vectornator:setting key="DynamicGuides" value="1"/>
<vectornator:setting key="Units" value="Points"/>
<vectornator:setting key="GuidesVisible" value="1"/>
<vectornator:setting key="RulersVisible" value="1"/>
<vectornator:setting key="SnapToGuides" value="1"/>
<vectornator:setting key="GridSpacing" value="36"/>
</metadata>
<defs/>
<g id="Calque 1" vectornator:layerName="Calque 1">
<path stroke="#000000" fill-rule="evenodd" stroke-width="10" d="M799.02+162.508C722.483+71.1014+608.392+13.0929+480.967+13.0929C250.543+13.0927+63.8704+202.779+63.8704+436.629C63.8702+630.463+192.303+793.441+367.445+843.691L488.204+1013.09L596.735+844.141L596.852+844.119C747.568+801.498+861.244+675.478+890.713+517.998C895.64+491.673+898.213+464.469+898.213+436.629C898.213+332.099+860.885+236.393+799.02+162.508" fill="#f4d35e" stroke-linecap="round" opacity="1" stroke-linejoin="round"/>
</g>
<g id="Calque 2" vectornator:layerName="Calque 2">
<path d="M331.617+247.169C286.068+247.434+249.926+286.816+249.926+330.515C249.926+375.866+283.645+410.21+321.936+410.21C336.72+410.21+349.178+405.847+358.621+398.959L358.621+627.599C358.619+632.59+362.016+636.941+366.858+638.15L410.336+649.02L453.813+659.889C454.516+660.066+455.234+660.173+455.958+660.208L455.108+660.208L489.054+668.699L489.054+681.946C489.054+686.064+491.38+689.828+495.062+691.669L532.532+710.394L532.532+725.424C532.53+730.415+535.927+734.766+540.769+735.975L584.247+746.845C587.494+747.655+590.934+746.924+593.572+744.863C596.209+742.802+597.75+739.641+597.749+736.294L597.749+398.959C607.191+405.847+619.65+410.21+634.433+410.21C672.725+410.21+706.443+375.866+706.443+330.515C706.443+286.816+670.301+247.434+624.752+247.169C624.731+247.168+624.71+247.168+624.689+247.169C623.608+247.169+622.576+247.312+621.504+247.338C620.839+247.219+620.164+247.162+619.488+247.169L336.882+247.169C336.22+247.165+335.559+247.222+334.908+247.338C333.822+247.311+332.775+247.169+331.681+247.169C331.659+247.168+331.638+247.168+331.617+247.169ZM331.723+268.907C391.417+268.931+434.021+316.156+434.643+376.286C434.231+379.655+435.417+383.024+437.849+385.393C437.87+385.414+437.891+385.436+437.913+385.457C437.962+385.507+438.011+385.556+438.061+385.605C440.522+387.953+443.939+389.013+447.296+388.471L508.967+388.471C512.516+389.074+516.133+387.882+518.627+385.287C518.634+385.28+518.641+385.273+518.648+385.266C518.669+385.245+518.69+385.223+518.712+385.202C518.74+385.174+518.768+385.146+518.797+385.117C521.066+382.746+522.142+379.477+521.726+376.222C522.378+316.123+564.974+268.931+624.646+268.907C657.435+269.111+684.704+299.048+684.704+330.515C684.704+365.207+659.554+388.471+634.433+388.471C620.604+388.471+612.054+383.89+606.304+377.708C600.554+371.526+597.749+363.204+597.749+355.863C597.749+343.182+602.485+339.834+608.045+337.054C613.5+334.326+619.061+334.194+619.275+334.188C619.423+334.197+621.433+334.294+624.094+335.759C626.851+337.275+629.493+339.046+630.442+346.395C631.21+352.356+636.669+356.563+642.629+355.789C648.589+355.014+652.791+349.552+652.011+343.592C650.242+329.887+642.015+320.784+634.582+316.695C627.148+312.605+619.87+312.385+619.87+312.385C619.742+312.383+619.615+312.383+619.488+312.385C619.488+312.385+609.066+312.235+598.322+317.608C587.577+322.98+576.01+335.936+576.01+355.863L576.01+722.367L554.271+716.932L554.271+703.685L554.271+464.557C554.271+446.677+539.543+431.949+521.662+431.949C503.782+431.949+489.054+446.677+489.054+464.557L489.054+646.281L467.315+640.846L467.315+464.557C467.315+446.677+452.588+431.949+434.707+431.949C416.826+431.949+402.099+446.677+402.099+464.557L402.099+624.542L380.36+619.107L380.36+355.863C380.36+335.936+368.792+322.98+358.048+317.608C347.303+312.235+336.882+312.385+336.882+312.385C336.755+312.383+336.627+312.383+336.5+312.385C336.5+312.385+329.222+312.605+321.788+316.695C314.354+320.784+306.127+329.887+304.358+343.592C303.585+349.549+307.786+355.004+313.742+355.778C319.698+356.552+325.154+352.351+325.928+346.395C326.876+339.046+329.519+337.275+332.275+335.759C334.936+334.295+336.946+334.197+337.094+334.188C337.309+334.194+342.869+334.326+348.325+337.054C353.884+339.834+358.621+343.182+358.621+355.863C358.621+363.204+355.816+371.526+350.065+377.708C344.315+383.89+335.765+388.471+321.936+388.471C296.816+388.471+271.665+365.207+271.665+330.515C271.665+299.048+298.935+269.111+331.723+268.907ZM401.589+268.907L554.78+268.907C523.824+290.484+503.539+326.139+500.433+366.732L455.936+366.732C452.83+326.139+432.545+290.484+401.589+268.907ZM434.707+453.688C440.826+453.688+445.576+458.439+445.576+464.557L445.576+635.412L423.837+629.977L423.837+464.557C423.837+458.439+428.588+453.688+434.707+453.688ZM521.662+453.688C527.781+453.688+532.532+458.439+532.532+464.557L532.532+686.107L510.793+675.238L510.793+660.208L510.793+464.557C510.793+458.439+515.544+453.688+521.662+453.688Z" fill-rule="evenodd" fill="#000000" opacity="1"/>
</g>
</svg>
