<?xml version="1.0" encoding="UTF-8" standalone="no"?> <!-- Created with Vectornator for iOS (http://vectornator.io/) --><!DOCTYPE svg PUBLIC "-//W3C//DTD SVG 1.1//EN" "http://www.w3.org/Graphics/SVG/1.1/DTD/svg11.dtd">
<svg height="100%" style="fill-rule:evenodd;clip-rule:evenodd;stroke-linecap:round;stroke-linejoin:round;" xmlns:xlink="http://www.w3.org/1999/xlink" xmlns="http://www.w3.org/2000/svg" xml:space="preserve" width="100%" xmlns:vectornator="http://vectornator.io" version="1.1" viewBox="0 0 1024 1024">
<metadata>
<vectornator:setting key="DynamicGuides" value="1"/>
<vectornator:setting key="Units" value="Points"/>
<vectornator:setting key="GuidesVisible" value="1"/>
<vectornator:setting key="RulersVisible" value="1"/>
<vectornator:setting key="SnapToGuides" value="1"/>
<vectornator:setting key="GridSpacing" value="36"/>
</metadata>
<defs/>
<g id="Calque 1" vectornator:layerName="Calque 1">
<path stroke="#000000" fill-rule="evenodd" stroke-width="10" d="M799.02+162.508C722.483+71.1014+608.392+13.0929+480.967+13.0929C250.543+13.0927+63.8704+202.779+63.8704+436.629C63.8702+630.463+192.303+793.441+367.445+843.691L488.204+1013.09L596.735+844.141L596.852+844.119C747.568+801.498+861.244+675.478+890.713+517.998C895.64+491.673+898.213+464.469+898.213+436.629C898.213+332.099+860.885+236.393+799.02+162.508" fill="#91a6ff" stroke-linecap="round" opacity="1" stroke-linejoin="round"/>
</g>
<g id="Calque 2" vectornator:layerName="Calque 2">
<path d="M619.198+190.392C618.775+190.414+618.353+190.461+617.936+190.534C617.936+190.534+616.795+190.812+616.756+190.819C614.927+191.145+571.601+198.917+526.768+220.015C503.876+230.788+480.685+244.962+462.761+263.941C444.837+282.919+432.243+307.214+432.243+336.208C432.243+362.549+440.901+382.373+448.682+400.886C456.463+419.399+463.493+436.696+463.493+461.211C463.493+474.521+459.506+484.669+450.147+496.368C440.788+508.066+425.774+520.746+405.163+536.204C405.135+536.225+405.109+536.244+405.082+536.265C409.217+517.512+411.464+496.773+411.409+471.607C411.155+350.099+291.411+285.405+291.411+285.405C289.877+284.565+288.156+284.124+286.406+284.124C281.98+284.121+278.036+286.916+276.571+291.092C275.105+295.269+276.439+299.915+279.896+302.679C279.896+302.679+328.074+340.548+328.074+419.543C328.074+446.296+321.087+462.353+313.242+481.312C305.397+500.271+296.823+521.976+296.823+554.963C296.823+623.251+351.329+686.639+351.329+686.639C353.58+689.336+357.04+690.717+360.53+690.311C364.02+689.905+367.07+687.767+368.643+684.625C368.643+684.625+368.723+684.505+368.724+684.503C368.731+684.489+368.738+684.475+368.744+684.462C368.866+684.216+372.806+676.277+384.065+667.27C395.499+658.123+413.724+648.715+442.66+648.715C471.595+648.715+505.913+659.132+546.829+659.132C585.272+659.132+616.927+647.902+639.889+626.375C662.85+604.849+676.702+573.703+682.146+535.594C690.831+474.782+710.548+447.803+750.996+417.468C754.588+414.779+756.055+410.093+754.638+405.836C753.22+401.579+749.236+398.708+744.75+398.709C699.881+398.709+669.033+420.041+649.716+444.1C630.398+468.159+621.606+494.971+617.631+507.558C611.886+525.745+606.624+544.547+590.287+559.357C577.351+571.084+556.447+580.973+520.725+584.626C528.669+579.946+536.16+574.618+542.902+568.35C564.337+548.421+578.079+519.645+578.079+482.044C578.079+447.9+563.756+422.29+550.735+398.852C537.714+375.414+525.995+354.148+525.995+325.791C525.995+282.773+549.466+254.806+573.908+236.474C598.351+218.143+622.738+210.758+622.738+210.758C627.755+209.217+630.843+204.185+629.944+199.014C629.045+193.844+624.44+190.149+619.198+190.392ZM542.983+236.19C522.397+257.16+505.161+286.491+505.161+325.791C505.161+359.935+519.484+385.546+532.505+408.984C545.526+432.422+557.245+453.687+557.245+482.044C557.245+514.758+546.248+536.777+528.701+553.091C511.154+569.405+486.343+579.756+459.038+585.583C458.84+585.624+458.643+585.672+458.448+585.725C445.881+589.188+434.826+593.589+424.857+598.482C423.72+598.996+422.569+599.453+421.439+600.008L421.521+600.17C399.422+611.604+383.502+625.661+372.488+638.644C377.062+604.566+388.906+574.447+417.655+552.888C438.711+537.096+454.948+523.733+466.423+509.389C477.898+495.045+484.327+479.151+484.327+461.211C484.327+432.61+475.733+411.494+467.888+392.829C460.043+374.165+453.077+358.045+453.077+336.208C453.077+313.117+462.619+294.442+477.898+278.264C493.178+262.086+514.259+248.916+535.639+238.855C538.299+237.603+540.33+237.347+542.983+236.19ZM650.998+242.456C645.244+242.456+640.581+247.12+640.581+252.873C640.581+258.626+645.244+263.29+650.998+263.29C656.751+263.29+661.414+258.626+661.414+252.873C661.414+247.12+656.751+242.456+650.998+242.456ZM703.082+284.124C697.329+284.124+692.665+288.787+692.665+294.54C692.665+300.294+697.329+304.957+703.082+304.957C708.835+304.957+713.499+300.294+713.499+294.54C713.499+288.787+708.835+284.124+703.082+284.124ZM640.581+325.791C623.445+325.791+609.33+339.906+609.33+357.042C609.33+374.178+623.445+388.292+640.581+388.292C657.717+388.292+671.831+374.178+671.831+357.042C671.831+339.906+657.717+325.791+640.581+325.791ZM331.858+343.776C360.508+372.314+390.457+414.906+390.575+471.648C390.684+520.877+382.54+549.545+366.995+582.511C366.512+583.499+366.07+584.503+365.611+585.501C365.595+585.535+365.587+585.569+365.571+585.603C356.589+605.208+352.257+626.739+350.332+648.654C335.944+625.495+317.657+589.417+317.657+554.963C317.657+525.448+324.708+508.09+332.489+489.287C340.269+470.485+348.908+450.084+348.908+419.543C348.908+388.165+341.069+364.192+331.858+343.776ZM640.581+346.625C646.457+346.625+650.998+351.165+650.998+357.042C650.998+362.918+646.457+367.459+640.581+367.459C634.704+367.459+630.164+362.918+630.164+357.042C630.164+351.165+634.704+346.625+640.581+346.625ZM709.654+425.891C684.147+452.345+668.439+484.19+661.516+532.664C656.543+567.473+644.353+593.62+625.647+611.157C606.941+628.694+581.304+638.298+546.829+638.298C509.617+638.298+476.225+627.881+442.66+627.881C430.23+627.881+419.215+629.465+409.496+632.031C416.069+627.057+423.687+622.265+432.426+617.891C450.199+609.63+470.28+607.047+489.536+607.047C548.349+607.047+583.08+594.001+604.284+574.779C625.489+555.557+631.941+531.387+637.488+513.824C641.326+501.671+649.461+477.7+665.951+457.162C676.611+443.886+690.887+432.595+709.654+425.891Z" fill-rule="evenodd" fill="#000000" opacity="1"/>
</g>
</svg>
