<?xml version="1.0" encoding="UTF-8" standalone="no"?> <!-- Created with Vectornator for iOS (http://vectornator.io/) --><!DOCTYPE svg PUBLIC "-//W3C//DTD SVG 1.1//EN" "http://www.w3.org/Graphics/SVG/1.1/DTD/svg11.dtd">
<svg style="fill-rule:evenodd;clip-rule:evenodd;stroke-linecap:round;stroke-linejoin:round;" xmlns:vectornator="http://vectornator.io" xmlns:xlink="http://www.w3.org/1999/xlink" xmlns="http://www.w3.org/2000/svg" xml:space="preserve" version="1.1" viewBox="0 0 1024 1024">
<metadata>
<vectornator:setting key="DimensionsVisible" value="1"/>
<vectornator:setting key="New" value="1"/>
<vectornator:setting key="SnapToPoints" value="0"/>
<vectornator:setting key="GuidesVisible" value="1"/>
<vectornator:setting key="RulersVisible" value="1"/>
<vectornator:setting key="CMYKEnabledKey" value="0"/>
<vectornator:setting key="SnapToEdges" value="0"/>
<vectornator:setting key="DisplayWhiteBackground" value="0"/>
<vectornator:setting key="SnapToGuides" value="1"/>
<vectornator:setting key="GridSpacing" value="36"/>
<vectornator:setting key="Units" value="Pixels"/>
<vectornator:setting key="DynamicGuides" value="0"/>
<vectornator:setting key="SnapToGrid" value="0"/>
</metadata>
<defs/>
<g id="Calque 1" vectornator:layerName="Calque 1">
<path stroke="#000000" stroke-width="10" d="M799.02+162.508C722.483+71.1014+608.392+13.0929+480.967+13.0929C250.543+13.0927+63.8704+202.779+63.8704+436.629C63.8702+630.463+192.303+793.441+367.445+843.691L488.204+1013.09L596.735+844.141L596.852+844.119C747.568+801.498+861.244+675.478+890.713+517.998C895.64+491.673+898.213+464.469+898.213+436.629C898.213+332.099+860.885+236.393+799.02+162.508" fill="#2ec4b6" stroke-linecap="round" opacity="1" stroke-linejoin="round"/>
</g>
<g id="Calque 2" vectornator:layerName="Calque 2">
<path d="M565.068+188.747C449.094+188.747+325.776+271.882+325.776+271.882C322.636+273.939+320.453+277.157+319.815+280.849C319.176+284.542+320.081+288.287+322.369+291.294L355.155+334.76C327.106+349.794+303.103+365.092+284.474+377.805C267.975+376.961+251.157+363.826+231.677+347.42C211.505+330.435+188.193+310.284+156.313+310.284C155.887+310.284+155.461+310.284+155.035+310.284C148.01+310.917+142.634+316.772+142.688+323.788C142.688+388.249+164.562+436.252+168.661+444.903C163.391+453.765+142.688+490.901+142.688+553.358C142.688+560.796+148.808+566.862+156.313+566.862C194.527+566.862+219.382+546.817+237.212+529.304C246.154+520.547+253.818+512.265+260.63+506.938C267.443+501.61+272.712+499.342+278.939+499.342C279.365+499.342+279.791+499.342+280.217+499.342C303.422+516.907+335.782+539.907+374.315+560.954L323.647+611.172C320.294+614.39+318.803+619.085+319.761+623.621C320.719+628.158+323.966+631.903+328.33+633.539L396.456+660.547C400.661+662.288+405.451+661.813+409.23+659.281L487.575+607.374C517.113+615.498+547.77+620.878+578.693+620.878C619.196+620.878+658.049+608.429+692.378+590.072C692.804+589.808+693.229+589.545+693.655+589.228C694.187+588.912+694.826+588.701+695.358+588.384C695.678+588.12+695.944+587.857+696.21+587.54C715.264+576.99+732.987+564.963+748.582+552.092C770.882+533.735+789.084+514.217+802.231+495.966C815.377+477.714+823.946+461.678+823.946+445.325C823.946+428.972+815.377+412.936+802.231+394.685C789.084+376.433+770.882+356.915+748.582+338.558C733.998+326.531+717.606+315.295+700.042+305.22C699.882+305.062+699.776+304.956+699.616+304.798C699.456+304.693+699.35+304.482+699.19+304.376C697.115+301.95+694.241+300.262+691.1+299.734C671.301+289.237+649.906+280.955+627.658+275.68L576.564+195.077C574.062+191.174+569.751+188.747+565.068+188.747ZM558.255+217.021L592.318+270.194C587.741+269.877+583.323+269.772+578.693+269.772C507.533+269.772+437.491+294.037+379.851+322.1L353.878+287.918C371.654+276.84+466.232+220.028+558.255+217.021ZM578.693+296.78C590.402+296.78+602.005+298.257+613.607+300.578C615.949+301.897+618.61+302.477+621.271+302.266C634.098+305.378+646.978+309.651+659.166+314.926C618.717+344.414+592.318+391.836+592.318+445.325C592.318+498.814+618.717+546.237+659.166+575.724C633.513+586.802+606.05+593.87+578.693+593.87C452.766+593.87+319.708+496.968+275.959+461.361C269.359+455.875+265.314+448.015+265.314+439.417C265.314+430.239+269.465+421.64+276.81+416.207C322.103+382.921+453.618+296.78+578.693+296.78ZM687.268+329.274C703.022+338.295+717.872+348.317+731.124+359.236C751.722+376.222+768.593+394.315+780.09+410.299C791.586+426.282+796.695+440.947+796.695+445.325C796.695+449.703+791.586+464.368+780.09+480.351C768.593+496.335+751.722+514.428+731.124+531.414C717.872+542.333+703.022+552.356+687.268+561.376C646.978+537.955+619.568+495.069+619.568+445.325C619.568+395.581+646.978+352.695+687.268+329.274ZM171.641+341.934C185.692+346.735+199.53+355.333+214.22+367.677C226.94+378.385+240.459+390.676+256.373+398.061C244.77+408.664+238.064+423.697+238.064+439.417C238.064+454.398+243.972+468.641+254.669+479.085C250.784+481.143+246.899+483.305+243.599+485.837C234.125+493.17+226.355+501.768+218.052+509.892C205.012+522.657+190.589+531.889+171.641+536.056C175.792+484.202+195.059+452.921+195.059+452.921C197.774+448.912+198.093+443.743+195.911+439.417C195.911+439.417+175.899+396.373+171.641+341.934ZM701.319+418.317C686.257+418.317+674.069+430.397+674.069+445.325C674.069+460.253+686.257+472.333+701.319+472.333C716.381+472.333+728.57+460.253+728.57+445.325C728.57+430.397+716.381+418.317+701.319+418.317ZM399.863+574.036C416.947+582.423+434.883+590.072+453.512+596.824L399.863+632.695L358.135+615.814L397.734+576.568C398.532+575.83+399.277+574.986+399.863+574.036Z" opacity="1" fill="#000000"/>
</g>
</svg>
