<?xml version="1.0" encoding="UTF-8" standalone="no"?> <!-- Created with Vectornator for iOS (http://vectornator.io/) --><!DOCTYPE svg PUBLIC "-//W3C//DTD SVG 1.1//EN" "http://www.w3.org/Graphics/SVG/1.1/DTD/svg11.dtd">
<svg height="100%" style="fill-rule:evenodd;clip-rule:evenodd;stroke-linecap:round;stroke-linejoin:round;" xmlns:xlink="http://www.w3.org/1999/xlink" xmlns="http://www.w3.org/2000/svg" xml:space="preserve" width="100%" xmlns:vectornator="http://vectornator.io" version="1.1" viewBox="0 0 1024 1024">
<metadata>
<vectornator:setting key="DynamicGuides" value="1"/>
<vectornator:setting key="Units" value="Points"/>
<vectornator:setting key="GuidesVisible" value="1"/>
<vectornator:setting key="RulersVisible" value="1"/>
<vectornator:setting key="SnapToGuides" value="1"/>
<vectornator:setting key="GridSpacing" value="36"/>
</metadata>
<defs/>
<g id="Calque 1" vectornator:layerName="Calque 1">
<path stroke="#000000" fill-rule="evenodd" stroke-width="10" d="M799.02+162.508C722.483+71.1014+608.392+13.0929+480.967+13.0929C250.543+13.0927+63.8704+202.779+63.8704+436.629C63.8702+630.463+192.303+793.441+367.445+843.691L488.204+1013.09L596.735+844.141L596.852+844.119C747.568+801.498+861.244+675.478+890.713+517.998C895.64+491.673+898.213+464.469+898.213+436.629C898.213+332.099+860.885+236.393+799.02+162.508" fill="#ee964b" stroke-linecap="round" opacity="1" stroke-linejoin="round"/>
</g>
<g id="Calque 2" vectornator:layerName="Calque 2">
<path d="M757.538+182.581L746.885+184.829L580.311+219.901L385.513+184.483L208.562+221.734L208.562+682.581L385.789+645.26L580.587+680.678L757.538+643.427L757.538+182.581ZM385.789+202.538L580.587+237.956L739.829+204.44L739.829+629.039L580.311+662.623L385.513+627.206L226.271+660.721L226.271+236.122L385.789+202.538ZM553.886+282.055C549.009+282.055+545.031+286.032+545.031+290.909C545.031+295.786+549.009+299.764+553.886+299.764C558.762+299.764+562.74+295.786+562.74+290.909C562.74+286.032+558.762+282.055+553.886+282.055ZM589.303+282.055C584.427+282.055+580.449+286.032+580.449+290.909C580.449+295.786+584.427+299.764+589.303+299.764C594.18+299.764+598.158+295.786+598.158+290.909C598.158+286.032+594.18+282.055+589.303+282.055ZM518.468+299.764C513.591+299.764+509.613+303.741+509.613+308.618C509.613+313.495+513.591+317.473+518.468+317.473C523.345+317.473+527.322+313.495+527.322+308.618C527.322+303.741+523.345+299.764+518.468+299.764ZM624.721+299.764C619.844+299.764+615.867+303.741+615.867+308.618C615.867+313.495+619.844+317.473+624.721+317.473C629.598+317.473+633.576+313.495+633.576+308.618C633.576+303.741+629.598+299.764+624.721+299.764ZM288.252+317.473C283.375+317.473+279.397+321.45+279.397+326.327C279.397+331.204+283.375+335.182+288.252+335.182C293.129+335.182+297.106+331.204+297.106+326.327C297.106+321.45+293.129+317.473+288.252+317.473ZM483.05+317.473C478.173+317.473+474.195+321.45+474.195+326.327C474.195+331.204+478.173+335.182+483.05+335.182C487.927+335.182+491.904+331.204+491.904+326.327C491.904+321.45+487.927+317.473+483.05+317.473ZM447.632+326.327C437.844+326.327+429.923+334.248+429.923+344.036C429.923+353.824+437.844+361.745+447.632+361.745C457.42+361.745+465.341+353.824+465.341+344.036C465.341+334.248+457.42+326.327+447.632+326.327ZM651.285+326.327C646.408+326.327+642.43+330.305+642.43+335.182C642.43+340.058+646.408+344.036+651.285+344.036C656.161+344.036+660.139+340.058+660.139+335.182C660.139+330.305+656.161+326.327+651.285+326.327ZM314.815+344.036C309.938+344.036+305.961+348.014+305.961+352.89C305.961+357.767+309.938+361.745+314.815+361.745C319.692+361.745+323.67+357.767+323.67+352.89C323.67+348.014+319.692+344.036+314.815+344.036ZM412.214+352.89C407.337+352.89+403.36+356.868+403.36+361.745C403.36+366.622+407.337+370.599+412.214+370.599C417.091+370.599+421.069+366.622+421.069+361.745C421.069+356.868+417.091+352.89+412.214+352.89ZM341.379+361.745C336.502+361.745+332.524+365.723+332.524+370.599C332.524+375.476+336.502+379.454+341.379+379.454C346.256+379.454+350.233+375.476+350.233+370.599C350.233+365.723+346.256+361.745+341.379+361.745ZM376.796+361.745C371.92+361.745+367.942+365.723+367.942+370.599C367.942+375.476+371.92+379.454+376.796+379.454C381.673+379.454+385.651+375.476+385.651+370.599C385.651+365.723+381.673+361.745+376.796+361.745ZM668.994+361.745C664.117+361.745+660.139+365.723+660.139+370.599C660.139+375.476+664.117+379.454+668.994+379.454C673.87+379.454+677.848+375.476+677.848+370.599C677.848+365.723+673.87+361.745+668.994+361.745ZM677.848+397.163C672.971+397.163+668.994+401.14+668.994+406.017C668.994+410.894+672.971+414.872+677.848+414.872C682.725+414.872+686.702+410.894+686.702+406.017C686.702+401.14+682.725+397.163+677.848+397.163ZM677.848+432.581C668.06+432.581+660.139+440.501+660.139+450.29C660.139+460.078+668.06+467.998+677.848+467.998C687.636+467.998+695.557+460.078+695.557+450.29C695.557+440.501+687.636+432.581+677.848+432.581ZM403.36+485.707C398.483+485.707+394.505+489.685+394.505+494.562C394.505+499.439+398.483+503.416+403.36+503.416C408.237+503.416+412.214+499.439+412.214+494.562C412.214+489.685+408.237+485.707+403.36+485.707ZM677.848+485.707C672.971+485.707+668.994+489.685+668.994+494.562C668.994+499.439+672.971+503.416+677.848+503.416C682.725+503.416+686.702+499.439+686.702+494.562C686.702+489.685+682.725+485.707+677.848+485.707ZM367.942+494.562C363.065+494.562+359.088+498.539+359.088+503.416C359.088+508.293+363.065+512.271+367.942+512.271C372.819+512.271+376.796+508.293+376.796+503.416C376.796+498.539+372.819+494.562+367.942+494.562ZM438.778+494.562C433.901+494.562+429.923+498.539+429.923+503.416C429.923+508.293+433.901+512.271+438.778+512.271C443.655+512.271+447.632+508.293+447.632+503.416C447.632+498.539+443.655+494.562+438.778+494.562ZM332.524+512.271C327.647+512.271+323.67+516.248+323.67+521.125C323.67+526.002+327.647+529.98+332.524+529.98C337.401+529.98+341.379+526.002+341.379+521.125C341.379+516.248+337.401+512.271+332.524+512.271ZM474.195+512.271C469.319+512.271+465.341+516.248+465.341+521.125C465.341+526.002+469.319+529.98+474.195+529.98C479.072+529.98+483.05+526.002+483.05+521.125C483.05+516.248+479.072+512.271+474.195+512.271ZM668.994+521.125C664.117+521.125+660.139+525.103+660.139+529.98C660.139+534.856+664.117+538.834+668.994+538.834C673.87+538.834+677.848+534.856+677.848+529.98C677.848+525.103+673.87+521.125+668.994+521.125ZM305.961+529.98C296.173+529.98+288.252+537.9+288.252+547.689C288.252+557.477+296.173+565.397+305.961+565.397C315.749+565.397+323.67+557.477+323.67+547.689C323.67+537.9+315.749+529.98+305.961+529.98ZM509.613+529.98C499.825+529.98+491.904+537.9+491.904+547.689C491.904+557.477+499.825+565.397+509.613+565.397C519.402+565.397+527.322+557.477+527.322+547.689C527.322+537.9+519.402+529.98+509.613+529.98ZM651.285+556.543C646.408+556.543+642.43+560.521+642.43+565.397C642.43+570.274+646.408+574.252+651.285+574.252C656.161+574.252+660.139+570.274+660.139+565.397C660.139+560.521+656.161+556.543+651.285+556.543ZM545.031+565.397C540.154+565.397+536.177+569.375+536.177+574.252C536.177+579.129+540.154+583.106+545.031+583.106C549.908+583.106+553.886+579.129+553.886+574.252C553.886+569.375+549.908+565.397+545.031+565.397ZM580.449+574.252C575.572+574.252+571.595+578.229+571.595+583.106C571.595+587.983+575.572+591.961+580.449+591.961C585.326+591.961+589.303+587.983+589.303+583.106C589.303+578.229+585.326+574.252+580.449+574.252ZM615.867+574.252C610.99+574.252+607.012+578.229+607.012+583.106C607.012+587.983+610.99+591.961+615.867+591.961C620.744+591.961+624.721+587.983+624.721+583.106C624.721+578.229+620.744+574.252+615.867+574.252Z" fill-rule="evenodd" fill="#000000" opacity="1"/>
</g>
</svg>
